HIERARCHY
ROOT hip
{
	OFFSET 0.000000 0.000000 0.000000 
	CHANNELS 6 Xposition Yposition Zposition Xrotation Zrotation Yrotation
	JOINT abdomen
	{
		OFFSET 0.000000 3.402643 0.000000 
		CHANNELS 3 Xrotation Zrotation Yrotation
		JOINT chest
		{
			OFFSET 0.000000 8.438565 -0.680529 
			CHANNELS 3 Xrotation Zrotation Yrotation
			JOINT neck
			{
				OFFSET 0.000000 10.207942 -0.272212 
				CHANNELS 3 Xrotation Zrotation Yrotation
				JOINT head
				{
					OFFSET 0.000000 3.130431 0.000000 
					CHANNELS 3 Xrotation Zrotation Yrotation
					End Site
					{
						OFFSET 0.000000 3.130435 0.000000 
					}
				}
			}
			JOINT lCollar
			{
				OFFSET 3.470700 6.669187 -0.816635 
				CHANNELS 3 Yrotation Zrotation Xrotation
				JOINT lShldr
				{
					OFFSET 3.198488 0.000000 0.000000 
					CHANNELS 3 Zrotation Yrotation Xrotation
					JOINT lForeArm
					{
						OFFSET 10.139888 0.000000 0.000000 
						CHANNELS 3 Yrotation Zrotation Xrotation
						JOINT lHand
						{
							OFFSET 8.370511 0.000000 0.000000 
							CHANNELS 3 Zrotation Yrotation Xrotation
							End Site
							{
								OFFSET 4.083176 0.000000 0.000000 
							}
						}
					}
				}
			}
			JOINT rCollar
			{
				OFFSET -3.470700 6.669187 -0.816635 
				CHANNELS 3 Yrotation Zrotation Xrotation
				JOINT rShldr
				{
					OFFSET -3.198488 0.000000 0.000000 
					CHANNELS 3 Zrotation Yrotation Xrotation
					JOINT rForeArm
					{
						OFFSET -10.139888 0.000000 0.000000 
						CHANNELS 3 Yrotation Zrotation Xrotation
						JOINT rHand
						{
							OFFSET -8.370511 0.000000 0.000000 
							CHANNELS 3 Zrotation Yrotation Xrotation
							End Site
							{
								OFFSET -4.083176 0.000000 0.000000 
							}
						}
					}
				}
			}
		}
	}
	JOINT lThigh
	{
		OFFSET 5.308129 -1.633274 1.361059 
		CHANNELS 3 Xrotation Zrotation Yrotation
		JOINT lShin
		{
			OFFSET -2.041588 -20.007561 0.000000 
			CHANNELS 3 Xrotation Zrotation Yrotation
			JOINT lFoot
			{
				OFFSET 0.000000 -19.190928 -1.224953 
				CHANNELS 3 Xrotation Yrotation Zrotation
				End Site
				{
					OFFSET 0.000000 -2.449906 4.627600 
				}
			}
		}
	}
	JOINT rThigh
	{
		OFFSET -5.308129 -1.633274 1.361059 
		CHANNELS 3 Xrotation Zrotation Yrotation
		JOINT rShin
		{
			OFFSET 2.041588 -20.007561 0.000000 
			CHANNELS 3 Xrotation Zrotation Yrotation
			JOINT rFoot
			{
				OFFSET 0.000000 -19.190928 -1.224953 
				CHANNELS 3 Xrotation Yrotation Zrotation
				End Site
				{
					OFFSET 0.000000 -2.449906 4.627600 
				}
			}
		}
	}
}
MOTION
Frames: 14
Frame Time: 0.016667
-6.270439 38.931957 -2.267897 0.048829 0.400391 -19.091400 -18.716400 -0.082177 1.254210 15.531300 2.743340 0.423201 17.242001 2.628950 3.401490 14.682600 7.638310 2.081380 2.000000 -2.000000 0.000000 -90.267303 -41.923599 -167.470001 124.473000 -0.131935 0.130559 0.046097 -0.021620 -144.666000 -2.000000 2.000000 0.000000 -98.714600 163.080002 -2.428070 -136.358002 0.122976 0.077862 -0.081152 0.071844 -163.522995 -21.571863 9.039807 -0.929355 62.504974 1.416991 3.877468 -32.100468 -6.504643 -2.435201 -19.916334 -10.023610 -4.882885 70.804482 -0.600766 -4.256156 -26.634323 3.425391 1.251426 
-6.207530 38.974659 -2.240576 0.205078 0.107421 -17.050400 -18.619600 -0.246305 1.205570 15.639100 2.685410 0.384526 16.996099 2.820260 3.002670 14.575000 7.670010 1.877100 2.000000 -2.000000 0.000000 -90.306503 -41.836800 -167.919998 124.599998 -0.131668 0.130375 0.046435 -0.023975 -145.516006 -2.000000 2.000000 0.000000 -99.466698 163.069000 -2.965160 -136.259995 0.123126 0.078019 -0.080726 0.070987 -163.181000 -21.559973 8.897855 -1.506260 61.385128 1.506628 3.812938 -33.027447 -5.402091 -1.903008 -20.680376 -11.145379 -6.472269 72.679070 -0.417473 -4.312010 -22.096355 5.178223 1.556311 
-6.182343 39.060047 -2.202021 0.292970 -0.146482 -15.323000 -18.572001 -0.408993 1.105180 15.658700 2.675750 0.317914 16.894100 3.144520 2.744850 14.528100 7.757730 1.749740 2.000000 -2.000000 0.000000 -90.110802 -41.622700 -168.251999 124.628998 -0.131606 0.130332 0.046573 -0.024867 -145.837997 -2.000000 2.000000 0.000000 -99.925499 162.893005 -3.179570 -136.093994 0.123380 0.078284 -0.080653 0.070840 -163.123001 -21.462894 8.773224 -2.152981 60.296406 1.585832 3.788058 -33.516850 -4.975689 -1.725003 -21.298021 -12.122037 -7.601465 73.826477 -0.329655 -4.342140 -18.910093 6.291413 1.561326 
-6.185454 39.177330 -2.155041 0.312507 -0.380854 -13.810700 -18.563700 -0.576009 0.965500 15.629300 2.704830 0.226145 16.907600 3.573500 2.609200 14.531500 7.882560 1.695880 2.000000 -2.000000 0.000000 -89.738998 -41.310699 -168.487000 124.610001 -0.131647 0.130360 0.046543 -0.024678 -145.768997 -2.000000 2.000000 0.000000 -100.179001 162.600006 -3.149560 -135.860001 0.123741 0.078658 -0.080847 0.071232 -163.279007 -21.276054 8.672114 -2.842159 59.187317 1.657958 3.737571 -33.615002 -5.035800 -1.824434 -21.730497 -12.991437 -8.369590 74.424942 -0.283148 -4.361658 -16.738247 6.898398 1.382230 
-6.254678 39.342968 -2.114836 0.390648 -0.615220 -12.836300 -18.505699 -0.640766 0.903884 15.697300 2.812140 0.181230 17.080700 4.031610 2.476110 14.634400 8.033430 1.640100 2.000000 -2.000000 0.000000 -89.387398 -41.359200 -168.330994 124.454002 -0.131976 0.130587 0.046526 -0.024570 -145.729996 -2.000000 2.000000 0.000000 -100.061996 162.199997 -2.972800 -135.585999 0.124164 0.079091 -0.080786 0.071110 -163.229996 -21.096674 8.827313 -3.056922 58.206264 1.721790 3.705443 -33.162697 -5.520339 -2.095724 -22.112396 -13.259394 -8.219240 73.492912 -0.365841 -4.338046 -18.018377 5.087681 0.857242 
-6.342830 39.517353 -2.075382 0.449272 -0.878879 -11.999200 -18.447399 -0.676734 0.863564 15.736000 2.909610 0.155429 17.264099 4.470500 2.350400 14.737200 8.174580 1.584410 2.000000 -2.000000 0.000000 -89.036003 -41.466099 -168.126007 124.267998 -0.132368 0.130855 0.046518 -0.024516 -145.710999 -2.000000 2.000000 0.000000 -99.836700 161.828995 -2.757060 -135.313004 0.124589 0.079523 -0.080689 0.070914 -163.151993 -21.079893 9.070466 -3.165089 57.468536 1.793581 3.659289 -32.609985 -6.019392 -2.354607 -22.414049 -13.359721 -7.830304 72.157349 -0.488393 -4.274332 -19.983541 2.764890 0.146162 
-6.478568 39.695465 -2.033716 0.371195 -1.337860 -11.395600 -18.486601 -0.656629 0.806066 15.462300 2.888950 0.123751 17.381599 4.758380 2.247310 14.770500 8.298460 1.524110 2.000000 -2.000000 0.000000 -88.704300 -41.602600 -168.028000 123.926003 -0.133092 0.131345 0.046573 -0.024867 -145.837997 -2.000000 2.000000 0.000000 -99.348297 161.731995 -2.454090 -135.117004 0.124894 0.079830 -0.080641 0.070816 -163.113007 -20.859671 9.691930 -3.065851 56.917152 1.855308 3.620542 -32.106346 -6.257537 -2.401978 -22.414188 -12.958047 -6.831133 69.616028 -0.731649 -4.209246 -22.479519 -0.246164 -1.091406 
-6.629472 39.849007 -1.998476 0.381019 -1.660120 -10.724200 -18.575100 -0.694936 0.676249 15.169100 2.858430 0.053138 17.529499 4.911440 2.204450 14.822100 8.373750 1.487040 2.000000 -2.000000 0.000000 -88.352997 -41.680801 -168.067001 123.653000 -0.133673 0.131733 0.046543 -0.024678 -145.768997 -2.000000 2.000000 0.000000 -98.850197 161.634995 -2.190180 -134.951004 0.125154 0.080090 -0.080714 0.070963 -163.171997 -20.733593 10.211203 -2.961978 56.377274 1.884743 3.592813 -31.657759 -6.606716 -2.534237 -22.433584 -12.727212 -5.642827 66.936531 -0.968825 -4.108267 -24.494787 -3.007558 -2.421255 
-6.800529 39.969894 -1.971818 0.498289 -1.787040 -9.996300 -18.732401 -0.827163 0.435058 14.836800 2.817950 -0.076719 17.714199 4.885030 2.234320 14.882200 8.400770 1.491260 2.000000 -2.000000 0.000000 -87.982101 -41.700901 -168.272003 123.447998 -0.134110 0.132023 0.046403 -0.023759 -145.436996 -2.000000 2.000000 0.000000 -98.361801 161.557999 -1.955610 -134.843994 0.125323 0.080258 -0.080993 0.071526 -163.395996 -20.912184 10.593162 -2.816548 55.895420 1.937058 3.574544 -31.193270 -7.156077 -2.774906 -22.561628 -12.703691 -4.227021 64.001015 -1.228630 -3.981671 -25.799923 -5.393602 -3.731112 
-6.993212 39.973503 -1.990568 0.771840 -1.738120 -8.998310 -18.772499 -1.021980 0.110180 14.670800 2.778270 -0.266430 17.738300 4.926400 2.194450 14.922500 8.428360 1.474580 2.000000 -2.000000 0.000000 -87.729500 -42.111500 -168.485992 123.370003 -0.134276 0.132133 0.046399 -0.023732 -145.427994 -2.000000 2.000000 0.000000 -98.127197 161.216003 -2.150100 -134.863998 0.125292 0.080228 -0.081472 0.072479 -163.776993 -21.486465 10.789262 -2.756109 55.769691 1.917068 3.587493 -31.088606 -7.037923 -2.678484 -22.959570 -13.030516 -2.769133 61.564362 -1.469514 -3.863566 -26.509989 -6.648385 -4.548320 
-7.194522 39.930027 -2.027504 1.113730 -1.620790 -7.893100 -18.763100 -1.252710 -0.254913 14.573200 2.738930 -0.462413 17.686600 4.997200 2.122900 14.953300 8.465820 1.437370 2.000000 -2.000000 0.000000 -87.506599 -42.668701 -168.709000 123.330002 -0.134360 0.132188 0.046448 -0.024056 -145.544998 -2.000000 2.000000 0.000000 -97.990097 160.755997 -2.529850 -134.932007 0.125185 0.080121 -0.082032 0.073575 -164.216995 -22.194866 10.920903 -2.739582 55.789158 1.902073 3.569711 -31.201021 -6.623895 -2.428451 -23.463646 -13.479559 -1.267652 59.216366 -1.672363 -3.744445 -26.864147 -7.471240 -5.149839 
-7.438172 39.736874 -2.152289 1.553260 -1.493590 -6.573940 -18.576401 -1.390990 -0.623997 14.494800 2.787090 -0.666603 17.345400 5.028750 1.905790 14.971900 8.426880 1.374310 2.000000 -2.000000 0.000000 -87.343498 -43.625801 -168.746002 123.417999 -0.134172 0.132065 0.046386 -0.023651 -145.397995 -2.000000 2.000000 0.000000 -98.429100 160.020004 -3.905030 -135.401001 0.124452 0.079384 -0.082971 0.075368 -164.938995 -23.635914 11.077581 -2.719028 56.557980 1.811265 3.636996 -31.250294 -6.306536 -2.233963 -24.485113 -14.102406 0.168417 58.623932 -1.773558 -3.691853 -26.981470 -7.475909 -5.278968 
-7.686867 39.492142 -2.302272 1.983010 -1.395650 -5.312210 -18.340300 -1.499700 -0.942167 14.396900 2.806000 -0.839458 16.920099 5.078570 1.622540 14.951000 8.389120 1.284570 2.000000 -2.000000 0.000000 -87.122101 -44.602600 -168.835007 123.526001 -0.133943 0.131913 0.046323 -0.023218 -145.242004 -2.000000 2.000000 0.000000 -98.985298 159.244995 -5.455910 -135.938004 0.123621 0.078533 -0.083973 0.077220 -165.690994 -25.189423 11.259748 -2.738077 57.570065 1.728972 3.690219 -31.412323 -5.986238 -2.101780 -25.554287 -14.734646 1.443314 58.287392 -1.856509 -3.668629 -26.970703 -7.432849 -5.363419 
-7.948153 39.118946 -2.515209 2.373700 -1.346500 -4.216180 -18.016300 -1.523720 -1.146140 14.279700 2.785960 -0.940720 16.298201 5.184390 1.198550 14.840700 8.334800 1.121300 2.000000 -2.000000 0.000000 93.245598 -134.391006 10.962700 123.671997 -0.133631 0.131706 0.046244 -0.022677 -145.046997 -2.000000 2.000000 0.000000 -99.815102 158.380997 -7.436280 -136.602005 0.122603 0.077470 -0.085106 0.079249 -166.520996 -26.908140 11.535155 -2.862114 59.083870 1.581558 3.767223 -31.896782 -5.881721 -2.070528 -27.051233 -15.392132 2.395413 59.061676 -1.816262 -3.682147 -26.779810 -7.163050 -5.322860 
